<svg id="sak32009" xmlns="http://www.w3.org/2000/svg" viewBox="0 0 500 622"><path id="skull_bg" d="M250,1C387.52,1,499,134.87,499,300S387.52,599,250,599,1,465.13,1,300,112.48,1,250,1" style="fill:#fff;fill-rule:evenodd"/><path id="skull" d="M250,0C388.07,0,500,134.31,500,300S388.07,600,250,600,0,465.68,0,300,111.93,0,250,0m0,5C385.31,5,495,137.08,495,300S385.31,595,250,595,5,462.92,5,300,114.69,5,250,5" style="fill-rule:evenodd"/><path id="eyes" d="M90,355c19.33,0,35,22.39,35,50s-15.67,50-35,50-35-22.39-35-50,15.67-50,35-50m320,0c19.33,0,35,22.39,35,50s-15.67,50-35,50-35-22.39-35-50,15.67-50,35-50" style="fill-rule:evenodd"/><path id="mouth_bg" d="M150,572H350v50H150V572" style="fill:#fff;fill-rule:evenodd"/><path id="mouth_bottom" d="M150,617H350v5H150v-5" style="fill-rule:evenodd"/><path id="mouth" d="M150,572h5v50h-5V572m195,0h5v50h-5V572m-95-15h5v60h-5V557" style="fill-rule:evenodd"/></svg>
